punching coordinate motion generated from LLM joint_angles
version=1
nRows=25
nColumns=29
inDegrees=yes
endheader
time	elbow_flexion	pro_sup	rotaxis_auxprfem_r3	deviation	auxprrud_auxdrfem_r3	auxdrfem_auxdrrud_r1	MCP2_lateral	MCP2_flex	PIP_flex	DIP_flex	MCP2M_lateral	MCP2M_flex	MPIP_flex	MDIP_flex	RCP2M_lateral	RCP2M_flex	RPIP_flex	RDIP_flex	LCP2M_lateral	LCP2M_flex	LPIP_flex	LDIP_flex	thumb_abd	thumb_flex	TCP2M_lateral	TCP2M_flex	TCP2M2_flex	flexion
0.666667	0.000000	0.000000	0.000000	0.000000	0.000000	0.000000	0.000000	77.942286	77.942286	77.942286	0.000000	77.942286	77.942286	77.942286	0.000000	77.942286	77.942286	77.942286	0.000000	77.942286	77.942286	77.942286	0.000000	77.942286	0.000000	0.000000	0.000000	25.980762
0.673333	0.000000	0.000000	0.000000	0.000000	0.000000	0.000000	0.000000	76.982783	76.982783	76.982783	0.000000	76.982783	76.982783	76.982783	0.000000	76.982783	76.982783	76.982783	0.000000	76.982783	76.982783	76.982783	0.000000	76.982783	0.000000	0.000000	0.000000	25.660928
0.680000	0.000000	0.000000	0.000000	0.000000	0.000000	0.000000	0.000000	75.989513	75.989513	75.989513	0.000000	75.989513	75.989513	75.989513	0.000000	75.989513	75.989513	75.989513	0.000000	75.989513	75.989513	75.989513	0.000000	75.989513	0.000000	0.000000	0.000000	25.329838
0.686667	0.000000	0.000000	0.000000	0.000000	0.000000	0.000000	0.000000	74.962912	74.962912	74.962912	0.000000	74.962912	74.962912	74.962912	0.000000	74.962912	74.962912	74.962912	0.000000	74.962912	74.962912	74.962912	0.000000	74.962912	0.000000	0.000000	0.000000	24.987637
0.693333	0.000000	0.000000	0.000000	0.000000	0.000000	0.000000	0.000000	73.903429	73.903429	73.903429	0.000000	73.903429	73.903429	73.903429	0.000000	73.903429	73.903429	73.903429	0.000000	73.903429	73.903429	73.903429	0.000000	73.903429	0.000000	0.000000	0.000000	24.634476
0.700000	0.000000	0.000000	0.000000	0.000000	0.000000	0.000000	0.000000	72.811529	72.811529	72.811529	0.000000	72.811529	72.811529	72.811529	0.000000	72.811529	72.811529	72.811529	0.000000	72.811529	72.811529	72.811529	0.000000	72.811529	0.000000	0.000000	0.000000	24.270510
0.706667	0.000000	0.000000	0.000000	0.000000	0.000000	0.000000	0.000000	71.687693	71.687693	71.687693	0.000000	71.687693	71.687693	71.687693	0.000000	71.687693	71.687693	71.687693	0.000000	71.687693	71.687693	71.687693	0.000000	71.687693	0.000000	0.000000	0.000000	23.895898
0.713333	0.000000	0.000000	0.000000	0.000000	0.000000	0.000000	0.000000	70.532411	70.532411	70.532411	0.000000	70.532411	70.532411	70.532411	0.000000	70.532411	70.532411	70.532411	0.000000	70.532411	70.532411	70.532411	0.000000	70.532411	0.000000	0.000000	0.000000	23.510804
0.720000	0.000000	0.000000	0.000000	0.000000	0.000000	0.000000	0.000000	69.346192	69.346192	69.346192	0.000000	69.346192	69.346192	69.346192	0.000000	69.346192	69.346192	69.346192	0.000000	69.346192	69.346192	69.346192	0.000000	69.346192	0.000000	0.000000	0.000000	23.115397
0.726667	0.000000	0.000000	0.000000	0.000000	0.000000	0.000000	0.000000	68.129555	68.129555	68.129555	0.000000	68.129555	68.129555	68.129555	0.000000	68.129555	68.129555	68.129555	0.000000	68.129555	68.129555	68.129555	0.000000	68.129555	0.000000	0.000000	0.000000	22.709852
0.733333	0.000000	0.000000	0.000000	0.000000	0.000000	0.000000	0.000000	66.883034	66.883034	66.883034	0.000000	66.883034	66.883034	66.883034	0.000000	66.883034	66.883034	66.883034	0.000000	66.883034	66.883034	66.883034	0.000000	66.883034	0.000000	0.000000	0.000000	22.294345
0.740000	0.000000	0.000000	0.000000	0.000000	0.000000	0.000000	0.000000	65.607176	65.607176	65.607176	0.000000	65.607176	65.607176	65.607176	0.000000	65.607176	65.607176	65.607176	0.000000	65.607176	65.607176	65.607176	0.000000	65.607176	0.000000	0.000000	0.000000	21.869059
0.746667	0.000000	0.000000	0.000000	0.000000	0.000000	0.000000	0.000000	64.302541	64.302541	64.302541	0.000000	64.302541	64.302541	64.302541	0.000000	64.302541	64.302541	64.302541	0.000000	64.302541	64.302541	64.302541	0.000000	64.302541	0.000000	0.000000	0.000000	21.434180
0.753333	0.000000	0.000000	0.000000	0.000000	0.000000	0.000000	0.000000	62.969701	62.969701	62.969701	0.000000	62.969701	62.969701	62.969701	0.000000	62.969701	62.969701	62.969701	0.000000	62.969701	62.969701	62.969701	0.000000	62.969701	0.000000	0.000000	0.000000	20.989900
0.760000	0.000000	0.000000	0.000000	0.000000	0.000000	0.000000	0.000000	61.609240	61.609240	61.609240	0.000000	61.609240	61.609240	61.609240	0.000000	61.609240	61.609240	61.609240	0.000000	61.609240	61.609240	61.609240	0.000000	61.609240	0.000000	0.000000	0.000000	20.536413
0.766667	0.000000	0.000000	0.000000	0.000000	0.000000	0.000000	0.000000	60.221755	60.221755	60.221755	0.000000	60.221755	60.221755	60.221755	0.000000	60.221755	60.221755	60.221755	0.000000	60.221755	60.221755	60.221755	0.000000	60.221755	0.000000	0.000000	0.000000	20.073918
0.773333	0.000000	0.000000	0.000000	0.000000	0.000000	0.000000	0.000000	58.807854	58.807854	58.807854	0.000000	58.807854	58.807854	58.807854	0.000000	58.807854	58.807854	58.807854	0.000000	58.807854	58.807854	58.807854	0.000000	58.807854	0.000000	0.000000	0.000000	19.602618
0.780000	0.000000	0.000000	0.000000	0.000000	0.000000	0.000000	0.000000	57.368159	57.368159	57.368159	0.000000	57.368159	57.368159	57.368159	0.000000	57.368159	57.368159	57.368159	0.000000	57.368159	57.368159	57.368159	0.000000	57.368159	0.000000	0.000000	0.000000	19.122720
0.786667	0.000000	0.000000	0.000000	0.000000	0.000000	0.000000	0.000000	55.903300	55.903300	55.903300	0.000000	55.903300	55.903300	55.903300	0.000000	55.903300	55.903300	55.903300	0.000000	55.903300	55.903300	55.903300	0.000000	55.903300	0.000000	0.000000	0.000000	18.634433
0.793333	0.000000	0.000000	0.000000	0.000000	0.000000	0.000000	0.000000	54.413920	54.413920	54.413920	0.000000	54.413920	54.413920	54.413920	0.000000	54.413920	54.413920	54.413920	0.000000	54.413920	54.413920	54.413920	0.000000	54.413920	0.000000	0.000000	0.000000	18.137973
0.800000	0.000000	0.000000	0.000000	0.000000	0.000000	0.000000	0.000000	52.900673	52.900673	52.900673	0.000000	52.900673	52.900673	52.900673	0.000000	52.900673	52.900673	52.900673	0.000000	52.900673	52.900673	52.900673	0.000000	52.900673	0.000000	0.000000	0.000000	17.633558
0.806667	0.000000	0.000000	0.000000	0.000000	0.000000	0.000000	0.000000	51.364221	51.364221	51.364221	0.000000	51.364221	51.364221	51.364221	0.000000	51.364221	51.364221	51.364221	0.000000	51.364221	51.364221	51.364221	0.000000	51.364221	0.000000	0.000000	0.000000	17.121407
0.813333	0.000000	0.000000	0.000000	0.000000	0.000000	0.000000	0.000000	49.805239	49.805239	49.805239	0.000000	49.805239	49.805239	49.805239	0.000000	49.805239	49.805239	49.805239	0.000000	49.805239	49.805239	49.805239	0.000000	49.805239	0.000000	0.000000	0.000000	16.601746
0.820000	0.000000	0.000000	0.000000	0.000000	0.000000	0.000000	0.000000	48.224412	48.224412	48.224412	0.000000	48.224412	48.224412	48.224412	0.000000	48.224412	48.224412	48.224412	0.000000	48.224412	48.224412	48.224412	0.000000	48.224412	0.000000	0.000000	0.000000	16.074804
0.826667	0.000000	0.000000	0.000000	0.000000	0.000000	0.000000	0.000000	46.622431	46.622431	46.622431	0.000000	46.622431	46.622431	46.622431	0.000000	46.622431	46.622431	46.622431	0.000000	46.622431	46.622431	46.622431	0.000000	46.622431	0.000000	0.000000	0.000000	15.540810
